<?xml version="1.0" standalone="no"?>
<!DOCTYPE svg PUBLIC "-//W3C//DTD SVG 20010904//EN"
 "http://www.w3.org/TR/2001/REC-SVG-20010904/DTD/svg10.dtd">
<svg version="1.0" xmlns="http://www.w3.org/2000/svg"
 width="128.000000pt" height="128.000000pt" viewBox="0 0 128.000000 128.000000"
 preserveAspectRatio="xMidYMid meet">
<metadata>
Created by potrace 1.11, written by Peter Selinger 2001-2013
</metadata>
<g transform="translate(0.000000,128.000000) scale(0.100000,-0.100000)"
fill="#000000" stroke="none">
<path d="M0 640 l0 -640 640 0 640 0 0 640 0 640 -640 0 -640 0 0 -640z m1070
325 l0 -125 70 0 c78 0 82 -4 53 -65 -16 -34 -19 -35 -70 -35 l-53 0 0 -258 0
-259 -67 -31 c-37 -17 -70 -29 -75 -26 -4 3 -8 133 -8 290 l0 284 -69 0 c-39
0 -72 4 -75 9 -3 4 2 27 11 50 l16 41 59 0 58 0 0 98 0 98 53 26 c28 15 62 27
75 27 22 1 22 -1 22 -124z m-544 82 c29 -14 68 -45 87 -68 64 -74 67 -95 67
-446 l0 -314 -66 -30 c-53 -24 -69 -28 -75 -17 -5 7 -9 170 -9 362 0 330 -1
350 -20 381 -30 48 -76 69 -143 63 -42 -3 -64 -11 -83 -29 -52 -47 -54 -63
-54 -407 l0 -319 -67 -31 c-37 -17 -71 -28 -76 -23 -4 4 -7 163 -5 352 l3 344
28 57 c53 108 148 160 282 155 62 -3 91 -9 131 -30z"/>
</g>
</svg>
